<svg width="34" height="28" viewBox="0 0 34 28" fill="none" xmlns="http://www.w3.org/2000/svg">
<path d="M33.3125 14.3086C33.3125 13.8633 33.1367 13.4707 32.7852 13.1309L21.1309 1.51172C20.9434 1.32422 20.75 1.18945 20.5508 1.10742C20.3633 1.02539 20.1641 0.984375 19.9531 0.984375C19.5195 0.984375 19.1562 1.13086 18.8633 1.42383C18.5703 1.70508 18.4238 2.0625 18.4238 2.49609C18.4238 2.70703 18.459 2.91211 18.5293 3.11133C18.5996 3.29883 18.7051 3.46289 18.8457 3.60352L22.7832 7.61133L29.7617 13.9746L30.1133 13.0957L24.4531 12.7441H2.2168C1.75977 12.7441 1.38477 12.8906 1.0918 13.1836C0.810547 13.4766 0.669922 13.8516 0.669922 14.3086C0.669922 14.7656 0.810547 15.1406 1.0918 15.4336C1.38477 15.7266 1.75977 15.873 2.2168 15.873H24.4531L30.1133 15.5215L29.7617 14.6602L22.7832 21.0059L18.8457 25.0137C18.7051 25.1543 18.5996 25.3242 18.5293 25.5234C18.459 25.7109 18.4238 25.9102 18.4238 26.1211C18.4238 26.5547 18.5703 26.9121 18.8633 27.1934C19.1562 27.4863 19.5195 27.6328 19.9531 27.6328C20.375 27.6328 20.7559 27.4688 21.0957 27.1406L32.7852 15.4863C33.1367 15.1465 33.3125 14.7539 33.3125 14.3086Z" fill="black"/>
</svg>
