<svg width="42" height="42" viewBox="0 0 42 42" fill="none" xmlns="http://www.w3.org/2000/svg">
<path d="M11.8397 31H31.5272C33.7283 31 35 29.7324 35 27.2217V13.7661C35 11.2676 33.716 10 31.1603 10H11.4728C9.27174 10 8 11.2554 8 13.7661V27.2217C8 29.7446 9.28397 31 11.8397 31ZM20.0448 21.1155L10.8125 12.0354C11.0815 11.9257 11.3995 11.8648 11.7663 11.8648H31.2337C31.6128 11.8648 31.9429 11.9257 32.212 12.0476L23.0041 21.1155C22.4783 21.6396 22.0014 21.8712 21.5245 21.8712C21.0353 21.8712 20.5584 21.6274 20.0448 21.1155ZM9.87092 27.2217V13.7661C9.87092 13.6686 9.87092 13.7174 9.87092 13.632L16.9022 20.5183L9.88315 27.4289C9.87092 27.368 9.87092 27.2948 9.87092 27.2217ZM33.1291 13.7783V27.2339C33.1291 27.2826 33.1291 27.3436 33.1291 27.3923L26.1467 20.5183L33.1291 13.6686C33.1291 13.7783 33.1291 13.7783 33.1291 13.7783ZM11.7663 29.1352C11.4239 29.1352 11.1304 29.0865 10.8736 28.9768L18.1861 21.7737L18.981 22.5537C19.837 23.3947 20.6562 23.7481 21.5245 23.7481C22.3804 23.7481 23.212 23.3947 24.0679 22.5537L24.8628 21.7737L32.163 28.9646C31.894 29.0865 31.5883 29.1352 31.2337 29.1352H11.7663Z" fill="black"/>
</svg>
