<svg width="178" height="40" viewBox="0 0 178 40" fill="none" xmlns="http://www.w3.org/2000/svg">
<path d="M23.4933 25.3178C23.6056 29.2533 22.3137 33.1887 19.6177 37.1241C16.9217 41.0595 14.1273 40.956 11.2347 36.8134C8.34205 32.6709 5.49155 29.7538 2.68317 28.0623C-0.125214 26.3707 -0.729016 23.8507 0.87176 20.5021C2.47254 17.1535 3.02017 12.4069 2.51466 6.26206C2.00915 0.117267 3.82056 -1.50523 7.94888 1.39456C12.0772 4.29434 15.0822 6.71084 16.9638 8.64403C18.8454 10.5772 20.376 12.8556 21.5555 15.4792C22.735 18.1029 23.3809 21.3824 23.4933 25.3178Z" fill="url(#paint0_linear_1555_820)"/>
<path d="M39.4014 32.672H35.5V10.5054H39.4331L47.0139 20.8604L54.2458 10.5054H57.9251V32.672H54.0554V16.6487L47.0456 26.497H46.4747L39.4014 16.7437V32.672Z" fill="black"/>
<path d="M72.6543 18.422H76.8094L71.1952 32.672C70.1802 35.142 69.2709 36.8098 68.4674 37.6754C67.685 38.562 66.7546 39.0054 65.6761 39.0054C64.6611 39.0054 63.6356 38.6359 62.5994 37.897L63.773 35.142C64.3228 35.4798 64.8197 35.6487 65.2638 35.6487C66.1308 35.6487 66.8603 34.9098 67.4524 33.432L67.7696 32.672L61.1721 18.422H65.5493L68.8797 26.212C68.922 26.3176 69.1546 27.0037 69.5775 28.2704C69.7044 27.4893 69.8736 26.7926 70.085 26.1804L72.6543 18.422Z" fill="black"/>
<path d="M82.6434 32.672H78.9958V18.422H82.6434V19.847C83.7007 18.7281 85.0646 18.1687 86.7351 18.1687C90.6471 18.1687 92.6031 20.2165 92.6031 24.312V32.672H88.9554V24.9454C88.9554 22.7076 87.8876 21.5887 85.7518 21.5887C84.5888 21.5887 83.5527 22.0426 82.6434 22.9504V32.672Z" fill="black"/>
<path d="M97.4211 22.0954L96.5013 19.4354C98.0449 18.5276 99.726 18.0737 101.545 18.0737C103.532 18.0737 104.981 18.5593 105.89 19.5304C106.799 20.5015 107.254 21.9898 107.254 23.9954V32.672H104.082V31.0254C103.236 32.2498 101.83 32.862 99.8634 32.862C98.5101 32.862 97.4211 32.4715 96.5964 31.6904C95.7929 30.8881 95.3911 29.822 95.3911 28.492C95.3911 27.0143 95.8669 25.8743 96.8185 25.072C97.77 24.2698 99.0282 23.8687 100.593 23.8687C101.883 23.8687 102.961 24.1748 103.828 24.787C103.871 23.5204 103.68 22.5915 103.257 22.0004C102.856 21.4093 102.158 21.1137 101.164 21.1137C100.064 21.1137 98.8167 21.4409 97.4211 22.0954ZM101.069 29.7904C102.295 29.7904 103.215 29.3576 103.828 28.492V27.0354C103.236 26.5709 102.401 26.3387 101.323 26.3387C100.646 26.3387 100.096 26.497 99.6731 26.8137C99.2502 27.1304 99.0388 27.5631 99.0388 28.112C99.0388 28.6187 99.2291 29.0304 99.6097 29.347C99.9903 29.6426 100.477 29.7904 101.069 29.7904Z" fill="black"/>
<path d="M132.654 32.672H118.762V10.5054H122.663V29.0304H132.654V32.672Z" fill="black"/>
<path d="M136.171 22.0954L135.251 19.4354C136.795 18.5276 138.476 18.0737 140.295 18.0737C142.282 18.0737 143.731 18.5593 144.64 19.5304C145.549 20.5015 146.004 21.9898 146.004 23.9954V32.672H142.832V31.0254C141.986 32.2498 140.58 32.862 138.614 32.862C137.26 32.862 136.171 32.4715 135.347 31.6904C134.543 30.8881 134.141 29.822 134.141 28.492C134.141 27.0143 134.617 25.8743 135.569 25.072C136.52 24.2698 137.778 23.8687 139.343 23.8687C140.633 23.8687 141.711 24.1748 142.578 24.787C142.621 23.5204 142.43 22.5915 142.007 22.0004C141.606 21.4093 140.908 21.1137 139.914 21.1137C138.814 21.1137 137.567 21.4409 136.171 22.0954ZM139.819 29.7904C141.045 29.7904 141.965 29.3576 142.578 28.492V27.0354C141.986 26.5709 141.151 26.3387 140.073 26.3387C139.396 26.3387 138.846 26.497 138.423 26.8137C138 27.1304 137.789 27.5631 137.789 28.112C137.789 28.6187 137.979 29.0304 138.36 29.347C138.74 29.6426 139.227 29.7904 139.819 29.7904Z" fill="black"/>
<path d="M149.743 31.437V10.5054H153.391V19.3087C154.427 18.4854 155.685 18.0737 157.166 18.0737C159.259 18.0737 160.908 18.7493 162.114 20.1004C163.34 21.4093 163.953 23.1509 163.953 25.3254C163.953 27.6687 163.213 29.537 161.733 30.9304C160.274 32.3237 158.297 33.0204 155.802 33.0204C154.702 33.0204 153.592 32.8726 152.471 32.577C151.372 32.2815 150.462 31.9015 149.743 31.437ZM156.309 21.4937C155.146 21.4937 154.173 21.9476 153.391 22.8554V28.9037C154.173 29.3893 155.04 29.632 155.992 29.632C157.197 29.632 158.17 29.2731 158.91 28.5554C159.671 27.8165 160.052 26.8243 160.052 25.5787C160.052 24.2909 159.703 23.2881 159.005 22.5704C158.307 21.8526 157.409 21.4937 156.309 21.4937Z" fill="black"/>
<path d="M166.645 22.412C166.645 21.082 167.131 20.0265 168.104 19.2454C169.076 18.4643 170.335 18.0737 171.878 18.0737C174.204 18.0737 176.012 18.6754 177.302 19.8787L175.938 22.4754C174.775 21.5676 173.485 21.1137 172.069 21.1137C171.561 21.1137 171.138 21.2404 170.8 21.4937C170.462 21.7259 170.292 22.0109 170.292 22.3487C170.292 23.0454 171.191 23.6259 172.988 24.0904C173.644 24.2381 174.225 24.407 174.733 24.597C175.24 24.7659 175.759 25.0193 176.287 25.357C176.837 25.6737 177.26 26.0959 177.556 26.6237C177.852 27.1515 178 27.7637 178 28.4604C178 29.8537 177.471 30.962 176.414 31.7854C175.378 32.6087 173.982 33.0204 172.227 33.0204C170.98 33.0204 169.764 32.7565 168.58 32.2287C167.374 31.6798 166.602 31.1309 166.264 30.582L168.04 28.207C168.442 28.6926 169.108 29.1043 170.039 29.442C170.99 29.8009 171.804 29.9804 172.481 29.9804C173.306 30.0648 173.887 29.8009 174.225 29.1887C174.564 28.5554 174.342 28.0381 173.559 27.637C173.242 27.4681 172.745 27.2887 172.069 27.0987C171.413 26.9087 170.8 26.7187 170.229 26.5287C169.679 26.3176 169.108 26.0537 168.516 25.737C167.945 25.4204 167.491 24.9876 167.152 24.4387C166.814 23.8687 166.645 23.1931 166.645 22.412Z" fill="black"/>
<defs>
<linearGradient id="paint0_linear_1555_820" x1="0" y1="0" x2="0" y2="40" gradientUnits="userSpaceOnUse">
<stop stop-color="#FF5F6D"/>
<stop offset="1" stop-color="#FFC371"/>
</linearGradient>
</defs>
</svg>
