<svg width="51" height="33" viewBox="0 0 51 33" fill="none" xmlns="http://www.w3.org/2000/svg">
<path d="M38.7988 32.4941C39.9017 32.4941 40.9616 32.3079 41.9785 31.9355C42.9954 31.5488 43.8978 31.0117 44.6855 30.3242C45.4733 29.6367 46.0892 28.8275 46.5332 27.8965H46.6191V30.7324C46.6191 31.2767 46.7839 31.7064 47.1133 32.0215C47.4427 32.3509 47.8581 32.5156 48.3594 32.5156C48.875 32.5156 49.2975 32.3509 49.627 32.0215C49.9564 31.6921 50.1211 31.2337 50.1211 30.6465V16.3164C50.1211 14.7552 49.7559 13.4017 49.0254 12.2559C48.3092 11.0957 47.2852 10.2005 45.9531 9.57031C44.6211 8.92578 43.0456 8.60352 41.2266 8.60352C39.207 8.60352 37.4167 9.01888 35.8555 9.84961C34.2943 10.666 33.2057 11.7689 32.5898 13.1582C32.4609 13.416 32.3607 13.6738 32.2891 13.9316C32.2174 14.1895 32.1816 14.4329 32.1816 14.6621C32.1816 15.1348 32.332 15.5143 32.6328 15.8008C32.9479 16.0872 33.3418 16.2305 33.8145 16.2305C34.1439 16.2305 34.4375 16.166 34.6953 16.0371C34.9531 15.8939 35.1608 15.6719 35.3184 15.3711C35.9199 14.125 36.6862 13.2083 37.6172 12.6211C38.5625 12.0195 39.737 11.7188 41.1406 11.7188C42.8164 11.7188 44.127 12.1556 45.0723 13.0293C46.0176 13.903 46.4902 15.0918 46.4902 16.5957V18.4434L39.5508 18.8301C36.8294 18.9733 34.7383 19.6465 33.2773 20.8496C31.8164 22.0384 31.0859 23.6354 31.0859 25.6406C31.0859 27.0156 31.4082 28.2188 32.0527 29.25C32.7116 30.2669 33.6211 31.0618 34.7812 31.6348C35.9414 32.2077 37.2806 32.4941 38.7988 32.4941ZM39.6797 29.5078C38.2188 29.5078 37.0371 29.1426 36.1348 28.4121C35.2467 27.6816 34.8027 26.7292 34.8027 25.5547C34.8027 24.4089 35.2467 23.485 36.1348 22.7832C37.0228 22.0671 38.3118 21.6517 40.002 21.5371L46.4902 21.1289V23.4062C46.4902 24.5521 46.1823 25.5833 45.5664 26.5C44.9648 27.4167 44.1484 28.1471 43.1172 28.6914C42.0859 29.2357 40.9401 29.5078 39.6797 29.5078ZM2.68359 32.3438C3.25651 32.3438 3.70052 32.222 4.01562 31.9785C4.33073 31.735 4.58854 31.3125 4.78906 30.7109L7.56055 23.127H20.2363L23.0078 30.7109C23.2083 31.3125 23.4661 31.735 23.7812 31.9785C24.0964 32.222 24.5332 32.3438 25.0918 32.3438C25.6647 32.3438 26.1159 32.1862 26.4453 31.8711C26.7891 31.556 26.9609 31.1263 26.9609 30.582C26.9609 30.2526 26.8822 29.8659 26.7246 29.4219L16.6484 2.58789C16.3906 1.92904 16.0397 1.4349 15.5957 1.10547C15.1517 0.776042 14.5859 0.611328 13.8984 0.611328C12.5664 0.611328 11.6641 1.26302 11.1914 2.56641L1.11523 29.4434C0.957682 29.8874 0.878906 30.2741 0.878906 30.6035C0.878906 31.1478 1.03646 31.5775 1.35156 31.8926C1.68099 32.1934 2.125 32.3438 2.68359 32.3438ZM8.61328 19.8613L13.834 5.40234H13.9414L19.1621 19.8613H8.61328Z" fill="black"/>
</svg>
