<svg width="30" height="31" viewBox="0 0 30 31" fill="none" xmlns="http://www.w3.org/2000/svg">
<path d="M15 30.3652C23.1738 30.3652 29.9414 23.583 29.9414 15.4238C29.9414 7.25 23.1592 0.482422 14.9854 0.482422C6.82617 0.482422 0.0585938 7.25 0.0585938 15.4238C0.0585938 23.583 6.84082 30.3652 15 30.3652ZM15 27.875C8.08594 27.875 2.56348 22.3379 2.56348 15.4238C2.56348 8.50977 8.07129 2.97266 14.9854 2.97266C21.8994 2.97266 27.4365 8.50977 27.4512 15.4238C27.4658 22.3379 21.9141 27.875 15 27.875ZM10.6494 14.1201C11.5723 14.1201 12.3926 13.2852 12.3926 12.1133C12.3926 10.9268 11.5869 10.0918 10.6494 10.0918C9.72656 10.0918 8.9209 10.9268 8.9209 12.1133C8.9209 13.2852 9.72656 14.1201 10.6494 14.1201ZM19.3359 14.1201C20.2588 14.1201 21.0791 13.2852 21.0791 12.1133C21.0791 10.9268 20.2734 10.0918 19.3359 10.0918C18.4131 10.0918 17.6074 10.9268 17.6074 12.1133C17.6074 13.2852 18.4131 14.1201 19.3359 14.1201ZM14.9854 22.7627C18.0469 22.7627 20.0977 20.7266 20.0977 19.7598C20.0977 19.4082 19.7607 19.2471 19.4531 19.3936C18.3838 19.9795 17.1094 20.6387 14.9854 20.6387C12.8613 20.6387 11.5869 19.9648 10.5322 19.3936C10.21 19.2471 9.87305 19.4082 9.87305 19.7598C9.87305 20.7266 11.9238 22.7627 14.9854 22.7627Z" fill="#FF7A00"/>
</svg>
