<svg width="40" height="19" viewBox="0 0 40 19" fill="none" xmlns="http://www.w3.org/2000/svg">
<path d="M2.23145 8.80859C7.47559 15.1221 12.6318 18.7988 19.9854 18.7988C27.3535 18.7988 32.5098 15.1221 37.7539 8.80859C39.4971 6.69922 39.0283 4.22363 36.2891 3.90137C32.0557 3.41797 30.6641 0.0927734 26.1963 0.0927734C22.6807 0.0927734 20.6006 2.71484 19.9854 2.71484C19.3848 2.71484 17.3047 0.0927734 13.7891 0.0927734C9.32129 0.0927734 7.92969 3.41797 3.69629 3.90137C0.957031 4.22363 0.488281 6.69922 2.23145 8.80859ZM19.0332 8.3252C18.2275 7.85645 17.0117 7.05078 14.7412 7.05078C14.0234 7.05078 13.291 7.16797 12.5586 7.24121C9.7168 7.54883 6.47949 7.56348 3.46191 6.04004C3.56445 5.98145 3.69629 5.9375 3.84277 5.9082L4.95605 5.68848C9.39453 4.85352 11.0938 2.34863 13.9355 2.34863C15.4297 2.34863 16.499 3.08105 17.5098 3.81348C18.4766 4.5166 19.1504 4.9707 19.9854 4.9707C20.835 4.9707 21.4941 4.5166 22.4756 3.81348C23.4863 3.08105 24.5557 2.34863 26.0498 2.34863C28.8916 2.34863 30.5908 4.85352 35.0293 5.68848L36.1426 5.9082C36.2891 5.9375 36.4209 5.98145 36.5234 6.04004C33.5645 7.57812 30.3125 7.54883 27.4707 7.25586C26.709 7.15332 25.9619 7.05078 25.2441 7.05078C22.9736 7.05078 21.7578 7.85645 20.9375 8.3252C20.3955 8.64746 20.2197 8.70605 19.9854 8.70605C19.7656 8.70605 19.5752 8.64746 19.0332 8.3252ZM19.9854 10.8154C21.9922 10.8154 22.3584 9.16016 25.3906 9.16016C28.3496 9.1748 31.9824 10.4492 36.5234 7.3291C32.4219 11.6211 27.3389 16.543 19.9854 16.543C12.6465 16.543 7.56348 11.6357 3.46191 7.31445C8.00293 10.4346 11.6357 9.1748 14.5947 9.16016C17.627 9.16016 17.9932 10.8154 19.9854 10.8154Z" fill="#FF2876"/>
</svg>
