<svg width="34" height="31" viewBox="0 0 34 31" fill="none" xmlns="http://www.w3.org/2000/svg">
<path d="M9.86621 30.5225C10.584 30.5225 11.082 30.1416 11.9756 29.3506L17.0293 24.8535H26.4336C30.7988 24.8535 33.1426 22.4365 33.1426 18.1445V6.92383C33.1426 2.63184 30.7988 0.214844 26.4336 0.214844H7.56641C3.20117 0.214844 0.857422 2.61719 0.857422 6.92383V18.1445C0.857422 22.4512 3.20117 24.8535 7.56641 24.8535H8.26953V28.6621C8.26953 29.79 8.84082 30.5225 9.86621 30.5225ZM10.4668 27.8418V23.5938C10.4668 22.8027 10.1592 22.4951 9.36816 22.4951H7.56641C4.60742 22.4951 3.21582 20.9863 3.21582 18.1299V6.92383C3.21582 4.06738 4.60742 2.57324 7.56641 2.57324H26.4336C29.3779 2.57324 30.7842 4.06738 30.7842 6.92383V18.1299C30.7842 20.9863 29.3779 22.4951 26.4336 22.4951H16.9414C16.1211 22.4951 15.7109 22.6123 15.1543 23.1836L10.4668 27.8418ZM9.83691 14.6289C10.9941 14.6289 11.9316 13.6914 11.9316 12.5342C11.9316 11.377 10.9941 10.4395 9.83691 10.4395C8.67969 10.4395 7.74219 11.377 7.74219 12.5342C7.74219 13.6914 8.67969 14.6289 9.83691 14.6289ZM17.0146 14.6289C18.1572 14.6289 19.1094 13.6914 19.1094 12.5342C19.1094 11.377 18.1572 10.4395 17.0146 10.4395C15.8574 10.4395 14.9053 11.377 14.9053 12.5342C14.9053 13.6914 15.8574 14.6289 17.0146 14.6289ZM24.1777 14.6289C25.335 14.6289 26.2725 13.6914 26.2725 12.5342C26.2725 11.377 25.335 10.4395 24.1777 10.4395C23.0205 10.4395 22.083 11.377 22.083 12.5342C22.083 13.6914 23.0205 14.6289 24.1777 14.6289Z" fill="#14BD2F"/>
</svg>
