<svg width="32" height="21" viewBox="0 0 32 21" fill="none" xmlns="http://www.w3.org/2000/svg">
<path d="M1.48047 20.2188C2.20508 20.2188 2.56055 19.9453 2.82031 19.1797L4.58398 14.3535H12.6504L14.4141 19.1797C14.6738 19.9453 15.0293 20.2188 15.7402 20.2188C16.4648 20.2188 16.9297 19.7812 16.9297 19.0977C16.9297 18.8652 16.8887 18.6465 16.7793 18.3594L10.3672 1.2832C10.0527 0.449219 9.49219 0.0253906 8.61719 0.0253906C7.76953 0.0253906 7.19531 0.435547 6.89453 1.26953L0.482422 18.373C0.373047 18.6602 0.332031 18.8789 0.332031 19.1113C0.332031 19.7949 0.769531 20.2188 1.48047 20.2188ZM5.25391 12.2754L8.57617 3.07422H8.64453L11.9668 12.2754H5.25391ZM24.4629 20.3145C26.5684 20.3145 28.5371 19.166 29.3848 17.3887H29.4395V19.1934C29.4395 19.877 29.9043 20.3281 30.5469 20.3281C31.2031 20.3281 31.668 19.877 31.668 19.1387V10.0195C31.668 7.03906 29.4805 5.11133 26.0078 5.11133C23.4375 5.11133 21.291 6.24609 20.5117 8.00977C20.3613 8.35156 20.252 8.67969 20.252 8.9668C20.252 9.56836 20.7031 9.96484 21.291 9.96484C21.7148 9.96484 22.043 9.80078 22.248 9.41797C23.0137 7.83203 24.1758 7.09375 25.9531 7.09375C28.0859 7.09375 29.3574 8.2832 29.3574 10.1973V11.373L24.9414 11.6191C21.4824 11.8105 19.5547 13.4102 19.5547 15.9531C19.5547 18.5645 21.5645 20.3145 24.4629 20.3145ZM25.0234 18.4141C23.1777 18.4141 21.9199 17.4023 21.9199 15.8984C21.9199 14.4492 23.082 13.4785 25.2285 13.3418L29.3574 13.082V14.5312C29.3574 16.7051 27.4297 18.4141 25.0234 18.4141Z" fill="#00B2FF"/>
</svg>
