<svg width="28" height="31" viewBox="0 0 28 31" fill="none" xmlns="http://www.w3.org/2000/svg">
<path d="M11.5098 30.7314C12.1836 30.7314 12.7109 30.2041 12.7109 29.5449V1.31738C12.7109 0.658203 12.1836 0.130859 11.5098 0.130859C10.8506 0.130859 10.3525 0.658203 10.3525 1.31738V29.5449C10.3525 30.2041 10.8506 30.7314 11.5098 30.7314ZM21.3828 27.4795C22.042 27.4795 22.5547 26.9521 22.5547 26.3076V4.55469C22.5547 3.91016 22.042 3.36816 21.3828 3.36816C20.6943 3.36816 20.1963 3.91016 20.1963 4.55469V26.3076C20.1963 26.9521 20.6943 27.4795 21.3828 27.4795ZM6.58789 24.8281C7.26172 24.8281 7.77441 24.3008 7.77441 23.6416V7.2207C7.77441 6.56152 7.26172 6.01953 6.58789 6.01953C5.92871 6.01953 5.41602 6.56152 5.41602 7.2207V23.6416C5.41602 24.3008 5.92871 24.8281 6.58789 24.8281ZM16.4463 23.041C17.1201 23.041 17.6328 22.5283 17.6328 21.8691V8.99316C17.6328 8.33398 17.1201 7.80664 16.4463 7.80664C15.7725 7.80664 15.2744 8.33398 15.2744 8.99316V21.8691C15.2744 22.5283 15.7725 23.041 16.4463 23.041ZM26.3047 20.0967C26.9639 20.0967 27.4912 19.5693 27.4912 18.9248V11.9375C27.4912 11.293 26.9639 10.751 26.3047 10.751C25.6309 10.751 25.1328 11.293 25.1328 11.9375V18.9248C25.1328 19.5693 25.6309 20.0967 26.3047 20.0967ZM1.65137 18.8369C2.33984 18.8369 2.85254 18.3096 2.85254 17.6504V13.2119C2.85254 12.5527 2.33984 12.0107 1.65137 12.0107C0.992188 12.0107 0.494141 12.5527 0.494141 13.2119V17.6504C0.494141 18.3096 0.992188 18.8369 1.65137 18.8369Z" fill="#4200FF"/>
</svg>
