<svg width="44" height="44" viewBox="0 0 44 44" fill="none" xmlns="http://www.w3.org/2000/svg">
<path d="M22 44C25.0052 44 27.8307 43.4248 30.4765 42.2745C33.1366 41.1242 35.4804 39.5353 37.5078 37.5078C39.5353 35.4804 41.1242 33.1438 42.2745 30.498C43.4248 27.8379 44 25.0052 44 22C44 18.9948 43.4248 16.1693 42.2745 13.5235C41.1242 10.8634 39.5353 8.51961 37.5078 6.49216C35.4804 4.46471 33.1366 2.87582 30.4765 1.72549C27.8163 0.575163 24.9837 0 21.9784 0C18.9732 0 16.1405 0.575163 13.4804 1.72549C10.8346 2.87582 8.49804 4.46471 6.47059 6.49216C4.45752 8.51961 2.87582 10.8634 1.72549 13.5235C0.575163 16.1693 0 18.9948 0 22C0 25.0052 0.575163 27.8379 1.72549 30.498C2.87582 33.1438 4.46471 35.4804 6.49216 37.5078C8.51961 39.5353 10.8562 41.1242 13.502 42.2745C16.1621 43.4248 18.9948 44 22 44ZM17.902 30.6922C17.3843 31.0085 16.881 31.066 16.3922 30.8647C15.9176 30.649 15.6804 30.2752 15.6804 29.7431V14.2784C15.6804 13.7464 15.932 13.3869 16.4353 13.2C16.9386 13.0131 17.4275 13.0562 17.902 13.3294L30.5843 20.8353C31.0301 21.1085 31.2529 21.5039 31.2529 22.0216C31.2673 22.5392 31.0444 22.9418 30.5843 23.2294L17.902 30.6922Z" fill="white"/>
</svg>
